<?xml version="1.0" encoding="UTF-8" standalone="no"?>
<svg
   viewBox="0 0 24 24"
   preserveAspectRatio="xMidYMid meet"
   focusable="false"
   class="style-scope tp-yt-iron-icon"
   style="pointer-events: none; display: block; width: 100%; height: 100%;"
   version="1.1"
   id="svg1"
   sodipodi:docname="like.svg"
   inkscape:version="1.3.2 (091e20e, 2023-11-25, custom)"
   xmlns:inkscape="http://www.inkscape.org/namespaces/inkscape"
   xmlns:sodipodi="http://sodipodi.sourceforge.net/DTD/sodipodi-0.dtd"
   xmlns="http://www.w3.org/2000/svg"
   xmlns:svg="http://www.w3.org/2000/svg">
  <defs
     id="defs1" />
  <sodipodi:namedview
     id="namedview1"
     pagecolor="#505050"
     bordercolor="#eeeeee"
     borderopacity="1"
     inkscape:showpageshadow="0"
     inkscape:pageopacity="0"
     inkscape:pagecheckerboard="0"
     inkscape:deskcolor="#505050"
     inkscape:zoom="32.375"
     inkscape:cx="11.984556"
     inkscape:cy="12"
     inkscape:window-width="1920"
     inkscape:window-height="991"
     inkscape:window-x="-9"
     inkscape:window-y="-9"
     inkscape:window-maximized="1"
     inkscape:current-layer="svg1" />
  <g
     class="style-scope tp-yt-iron-icon"
     id="g1">
    <path
       d="M18.77,11h-4.23l1.52-4.94C16.38,5.03,15.54,4,14.38,4c-0.58,0-1.14,0.24-1.52,0.65L7,11H3v10h4h1h9.43 c1.06,0,1.98-0.67,2.19-1.61l1.34-6C21.23,12.15,20.18,11,18.77,11z M7,20H4v-8h3V20z M19.98,13.17l-1.34,6 C18.54,19.65,18.03,20,17.43,20H8v-8.61l5.6-6.06C13.79,5.12,14.08,5,14.38,5c0.26,0,0.5,0.11,0.63,0.3 c0.07,0.1,0.15,0.26,0.09,0.47l-1.52,4.94L13.18,12h1.35h4.23c0.41,0,0.8,0.17,1.03,0.46C19.92,12.61,20.05,12.86,19.98,13.17z"
       class="style-scope tp-yt-iron-icon"
       id="path1" fill="#aaa"/>
  </g>
</svg>
