<?xml version="1.0" encoding="UTF-8" standalone="no"?>
<svg
   viewBox="0 0 24 24"
   preserveAspectRatio="xMidYMid meet"
   focusable="false"
   class="style-scope tp-yt-iron-icon"
   style="pointer-events: none; display: block; width: 100%; height: 100%;"
   version="1.1"
   id="svg1"
   sodipodi:docname="live.svg"
   inkscape:version="1.3.2 (091e20e, 2023-11-25, custom)"
   xmlns:inkscape="http://www.inkscape.org/namespaces/inkscape"
   xmlns:sodipodi="http://sodipodi.sourceforge.net/DTD/sodipodi-0.dtd"
   xmlns="http://www.w3.org/2000/svg"
   xmlns:svg="http://www.w3.org/2000/svg">
  <defs
     id="defs1" />
  <sodipodi:namedview
     id="namedview1"
     pagecolor="#505050"
     bordercolor="#eeeeee"
     borderopacity="1"
     inkscape:showpageshadow="0"
     inkscape:pageopacity="0"
     inkscape:pagecheckerboard="0"
     inkscape:deskcolor="#505050"
     inkscape:zoom="32.375"
     inkscape:cx="11.984556"
     inkscape:cy="12"
     inkscape:window-width="1920"
     inkscape:window-height="991"
     inkscape:window-x="-9"
     inkscape:window-y="-9"
     inkscape:window-maximized="1"
     inkscape:current-layer="svg1" />
  <g
     width="24"
     height="24"
     viewBox="0 0 24 24"
     class="style-scope tp-yt-iron-icon"
     id="g1">
    <path
       d="M14 11.9999C14 13.0999 13.1 13.9999 12 13.9999C10.9 13.9999 10 13.0999 10 11.9999C10 10.8999 10.9 9.99992 12 9.99992C13.1 9.99992 14 10.8999 14 11.9999ZM8.48 8.44992L7.77 7.74992C6.68 8.82992 6 10.3399 6 11.9999C6 13.6599 6.68 15.1699 7.77 16.2499L8.48 15.5399C7.57 14.6399 7 13.3899 7 11.9999C7 10.6099 7.57 9.35992 8.48 8.44992ZM16.23 7.74992L15.52 8.45992C16.43 9.35992 17 10.6099 17 11.9999C17 13.3899 16.43 14.6399 15.52 15.5499L16.23 16.2599C17.32 15.1699 18 13.6599 18 11.9999C18 10.3399 17.32 8.82992 16.23 7.74992ZM5.65 5.62992L4.95 4.91992C3.13 6.72992 2 9.23992 2 11.9999C2 14.7599 3.13 17.2699 4.95 19.0799L5.66 18.3699C4.02 16.7399 3 14.4899 3 11.9999C3 9.50992 4.02 7.25992 5.65 5.62992ZM19.05 4.91992L18.34 5.62992C19.98 7.25992 21 9.50992 21 11.9999C21 14.4899 19.98 16.7399 18.35 18.3699L19.06 19.0799C20.87 17.2699 22 14.7599 22 11.9999C22 9.23992 20.87 6.72992 19.05 4.91992Z"
       class="style-scope tp-yt-iron-icon"
       id="path1" fill="#aaa"/>
  </g>
</svg>
