<svg id="eqOWkCJbhFE1" xmlns="http://www.w3.org/2000/svg" xmlns:xlink="http://www.w3.org/1999/xlink" viewBox="0 0 32 32" shape-rendering="geometricPrecision" text-rendering="geometricPrecision"><rect width="11.84302" height="11.525086" rx="0" ry="0" transform="translate(9.919523 10.332837)" fill="#fff" stroke-width="0"/><path d="M13.005,20.499v-8.997l7.498,4.499-7.498,4.498ZM27.146,17.47c.063-.438.101-.947.105-1.464v-.005c-.004-.522-.042-1.032-.112-1.531l.007.061l3.164-2.474c.171-.14.279-.35.279-.586c0-.137-.037-.266-.101-.377l.002.004L27.491,5.91c-.133-.227-.375-.377-.653-.377-.094,0-.184.017-.267.049l.005-.002-3.734,1.5c-.731-.572-1.566-1.065-2.462-1.443l-.072-.027-.57-3.974c-.051-.358-.356-.63-.724-.63-.004,0-.008,0-.011,0h-5.998c-.003,0-.007,0-.011,0-.368,0-.673.272-.724.626v.004L11.7,5.61c-.967.412-1.802.904-2.561,1.49l.027-.02-3.734-1.5c-.081-.033-.174-.053-.272-.053-.276,0-.516.153-.641.379l-.002.004-2.999,5.189c-.065.108-.103.238-.103.377c0,.236.11.446.282.581l.002.001l3.164,2.474c-.062.437-.1.946-.105,1.464v.006c.005.523.043,1.032.112,1.532l-.007-.062-3.164,2.474c-.171.14-.279.35-.279.586c0,.137.037.266.101.377l-.002-.004l2.999,5.188c.133.227.375.377.653.377.094,0,.184-.017.267-.049l-.005.002l3.734-1.5c.731.572,1.566,1.065,2.462,1.443l.072.027.57,3.974c.051.358.356.63.724.63.004,0,.008,0,.011,0h5.998c.003,0,.007,0,.011,0c.368,0,.673-.272.724-.626v-.004l.57-3.974c.968-.412,1.802-.904,2.561-1.489l-.027.02l3.734,1.5c.081.033.174.052.272.052.276,0,.516-.153.641-.379l.002-.004l2.999-5.189c.062-.107.099-.236.099-.373c0-.236-.108-.447-.277-.585l-.001-.001-3.166-2.475Z" fill="#f00"/></svg>
