<svg id="epHI1eUcJP81" xmlns="http://www.w3.org/2000/svg" xmlns:xlink="http://www.w3.org/1999/xlink" viewBox="0 -3 20 20" shape-rendering="geometricPrecision" text-rendering="geometricPrecision"><rect width="10.283159" height="7.153502" rx="0" ry="0" transform="translate(4.610035 3.308992)" fill="#fff" stroke-width="0"/><g><g transform="translate(-300-7442)"><g transform="translate(56 160)"><path d="M251.988432,7291.58588v-5.61163c1.992206.93743,3.53517,1.84295,5.360031,2.81928-1.505112.83471-3.367825,1.77115-5.360031,2.79235m11.102566-8.40299c-.343655-.45276-.929364-.8048-1.552925-.92148-1.83283-.34805-13.267099-.34904-15.098932,0-.500044.09374-.945302.32012-1.327806.67216-1.611695,1.4959-1.106671,9.51794-.71819,10.81739.16336.56246.374534.96835.640494,1.23462.342659.35203.811824.59437,1.350716.70307c1.509096.31215,9.283682.48667,15.121843.04687.537896-.09374,1.014033-.34405,1.389564-.71105c1.49017-1.48992,1.388568-9.96273.195236-11.84158" fill="#f00" fill-rule="evenodd"/></g></g></g></svg>
