<svg id="eV8SqLbPnwa1" xmlns="http://www.w3.org/2000/svg" xmlns:xlink="http://www.w3.org/1999/xlink" viewBox="0 0 100 100" shape-rendering="geometricPrecision" text-rendering="geometricPrecision"><g style="isolation:isolate"><g><g><g><rect width="64.331843" height="65.822156" rx="32.17" ry="32.17" transform="matrix(.93824 0 0 0.939578 19.820646 19.077475)" fill="#fff" stroke-width="0"/><path d="M50,2.5C23.766,2.5,2.5,23.823,2.5,50.126c2.502,63.175,92.507,63.157,95-.001C97.5,23.823,76.233,2.5,50,2.5Zm0,74.899c-15.036,0-27.27-12.233-27.27-27.27.74-18.662,14.654-27.134,27.269-27.134.001,0,.001,0,.002,0c12.616.001,26.531,8.473,27.267,27.073C77.27,65.167,65.036,77.399,50,77.399Z" fill="#f00"/><path d="M50.002,26.103c-15.946-.001-23.704,12.486-24.165,24.088C25.838,63.453,36.677,74.292,50,74.292s24.162-10.839,24.162-24.162c-.457-11.539-8.214-24.025-24.16-24.027Z" fill="#f00"/></g><path d="M41.055,52.528c-.001,2.575.001,7.867,0,10.46c0,0,21.802-13.417,21.802-13.417L41.055,37.272v15.256Z" fill="#f1f1f1"/></g></g></g></svg>
