<svg id="eel5sLibDZ21" xmlns="http://www.w3.org/2000/svg" xmlns:xlink="http://www.w3.org/1999/xlink" viewBox="0 0 24 24" shape-rendering="geometricPrecision" text-rendering="geometricPrecision"><path d="M15.0501,7.04419C15.4673,5.79254,14.5357,4.5,13.2163,4.5c-.6242,0-1.2101.30147-1.5729.80944L8.47155,9.75h-2.61407l-.75.75v7.5l.75.75h10.96362l2.3036-4.6072c.6841-1.3681.4159-3.0204-.6656-4.102C17.7926,9.37439,16.8888,9,15.9463,9h-1.5482l.652-1.95581ZM9.60751,10.7404L12.864,6.1813c.0813-.11377.2125-.1813.3523-.1813.2955,0,.5042.28951.4107.56984L12.317,10.5h3.6293c.5447,0,1.067.2164,1.4521.6015.6251.625.78,1.5799.3847,2.3705l-1.889,3.778h-6.28659v-6.5096Zm-1.5,6.5096h-1.50003v-6h1.50003v6Z" transform="matrix(1.287355 0 0 1.321867-3.535539-3.741704)" clip-rule="evenodd" fill="#d8d9dc" fill-rule="evenodd"/></svg>
