<svg id="e8r7dZGCvK11" xmlns="http://www.w3.org/2000/svg" xmlns:xlink="http://www.w3.org/1999/xlink" viewBox="0 0 1920 1920" shape-rendering="geometricPrecision" text-rendering="geometricPrecision"><path d="M1493.33,320v-320L1600,0v320h320v106.667h-320v320h-106.67v-320h-320v-106.667h320ZM160,426.667c-29.455,0-53.333,23.878-53.333,53.333v1280c0,29.46,23.878,53.33,53.333,53.33h1280c29.46,0,53.33-23.87,53.33-53.33v-800h106.67v800c0,88.37-71.63,160-160,160h-1280c-88.365,0-160-71.63-160-160L0,480c0-88.366,71.634-160,160-160h800v106.667h-800ZM533.333,705.803L1223.66,1120L533.333,1534.2v-828.397ZM640,894.197v451.603L1016.34,1120L640,894.197Z" transform="matrix(.901641 0 0 0.90065 94.42464 95.376)" fill="#d8d9dc" fill-rule="evenodd"/></svg>
