<?xml version="1.0" encoding="UTF-8" standalone="no"?>
<svg
   viewBox="0 0 24 24"
   preserveAspectRatio="xMidYMid meet"
   focusable="false"
   class="style-scope yt-icon"
   style="pointer-events: none; display: block; width: 100%; height: 100%;"
   version="1.1"
   id="svg1"
   sodipodi:docname="half-moon.svg"
   inkscape:version="1.3.2 (091e20e, 2023-11-25, custom)"
   xmlns:inkscape="http://www.inkscape.org/namespaces/inkscape"
   xmlns:sodipodi="http://sodipodi.sourceforge.net/DTD/sodipodi-0.dtd"
   xmlns="http://www.w3.org/2000/svg"
   xmlns:svg="http://www.w3.org/2000/svg">
  <defs
     id="defs1" />
  <sodipodi:namedview
     id="namedview1"
     pagecolor="#505050"
     bordercolor="#eeeeee"
     borderopacity="1"
     inkscape:showpageshadow="0"
     inkscape:pageopacity="0"
     inkscape:pagecheckerboard="0"
     inkscape:deskcolor="#505050"
     inkscape:zoom="32.375"
     inkscape:cx="11.984556"
     inkscape:cy="12"
     inkscape:window-width="1920"
     inkscape:window-height="991"
     inkscape:window-x="-9"
     inkscape:window-y="-9"
     inkscape:window-maximized="1"
     inkscape:current-layer="svg1" />
  <g
     class="style-scope yt-icon"
     id="g1">
    <path
       d="M12 22C10.93 22 9.86998 21.83 8.83998 21.48L7.41998 21.01L8.83998 20.54C12.53 19.31 15 15.88 15 12C15 8.12 12.53 4.69 8.83998 3.47L7.41998 2.99L8.83998 2.52C9.86998 2.17 10.93 2 12 2C17.51 2 22 6.49 22 12C22 17.51 17.51 22 12 22ZM10.58 20.89C11.05 20.96 11.53 21 12 21C16.96 21 21 16.96 21 12C21 7.04 16.96 3 12 3C11.53 3 11.05 3.04 10.58 3.11C13.88 4.81 16 8.21 16 12C16 15.79 13.88 19.19 10.58 20.89Z"
       class="style-scope yt-icon"
       id="path1" fill="#aaa"/>
  </g>
</svg>
