<?xml version="1.0" encoding="UTF-8" standalone="no"?>
<svg
   viewBox="0 0 24 24"
   preserveAspectRatio="xMidYMid meet"
   focusable="false"
   class="style-scope yt-icon"
   style="pointer-events: none; display: block; width: 100%; height: 100%;"
   version="1.1"
   id="svg1"
   sodipodi:docname="switch.svg"
   inkscape:version="1.3.2 (091e20e, 2023-11-25, custom)"
   xmlns:inkscape="http://www.inkscape.org/namespaces/inkscape"
   xmlns:sodipodi="http://sodipodi.sourceforge.net/DTD/sodipodi-0.dtd"
   xmlns="http://www.w3.org/2000/svg"
   xmlns:svg="http://www.w3.org/2000/svg">
  <defs
     id="defs1" />
  <sodipodi:namedview
     id="namedview1"
     pagecolor="#505050"
     bordercolor="#eeeeee"
     borderopacity="1"
     inkscape:showpageshadow="0"
     inkscape:pageopacity="0"
     inkscape:pagecheckerboard="0"
     inkscape:deskcolor="#505050"
     showgrid="false"
     inkscape:zoom="32.375"
     inkscape:cx="11.984556"
     inkscape:cy="12"
     inkscape:window-width="1920"
     inkscape:window-height="991"
     inkscape:window-x="-9"
     inkscape:window-y="-9"
     inkscape:window-maximized="1"
     inkscape:current-layer="svg1" />
  <g
     class="style-scope yt-icon"
     id="g1">
    <path
       d="M4,20h14v1H3V6h1V20z M6,3v15h15V3H6z M8.02,17c0.36-2.13,1.93-4.1,5.48-4.1s5.12,1.97,5.48,4.1H8.02z M11,8.5 C11,7.12,12.12,6,13.5,6S16,7.12,16,8.5c0,1.38-1.12,2.5-2.5,2.5S11,9.88,11,8.5z M14.21,11.93C15.8,11.6,17,10.19,17,8.5 C17,6.57,15.43,5,13.5,5S10,6.57,10,8.5c0,1.69,1.2,3.1,2.79,3.43c-3.48,0.26-5.4,2.42-5.78,5.07H7V4h13v13h-0.01 C19.61,14.35,17.68,12.19,14.21,11.93z"
       class="style-scope yt-icon"
       id="path1" fill="#aaa"/>
  </g>
</svg>
