<?xml version="1.0" encoding="UTF-8" standalone="no"?>
<svg
   viewBox="0 0 24 24"
   preserveAspectRatio="xMidYMid meet"
   focusable="false"
   class="style-scope yt-icon"
   style="pointer-events: none; display: block; width: 100%; height: 100%;"
   version="1.1"
   id="svg1"
   sodipodi:docname="you-channel.svg"
   inkscape:version="1.3.2 (091e20e, 2023-11-25, custom)"
   xmlns:inkscape="http://www.inkscape.org/namespaces/inkscape"
   xmlns:sodipodi="http://sodipodi.sourceforge.net/DTD/sodipodi-0.dtd"
   xmlns="http://www.w3.org/2000/svg"
   xmlns:svg="http://www.w3.org/2000/svg">
  <defs
     id="defs1" />
  <sodipodi:namedview
     id="namedview1"
     pagecolor="#505050"
     bordercolor="#eeeeee"
     borderopacity="1"
     inkscape:showpageshadow="0"
     inkscape:pageopacity="0"
     inkscape:pagecheckerboard="0"
     inkscape:deskcolor="#505050"
     inkscape:zoom="32.375"
     inkscape:cx="11.984556"
     inkscape:cy="12"
     inkscape:window-width="1920"
     inkscape:window-height="991"
     inkscape:window-x="-9"
     inkscape:window-y="-9"
     inkscape:window-maximized="1"
     inkscape:current-layer="svg1" />
  <g
     class="style-scope yt-icon"
     id="g1">
    <path
       d="M3,3v18h18V3H3z M4.99,20c0.39-2.62,2.38-5.1,7.01-5.1s6.62,2.48,7.01,5.1H4.99z M9,10c0-1.65,1.35-3,3-3s3,1.35,3,3 c0,1.65-1.35,3-3,3S9,11.65,9,10z M12.72,13.93C14.58,13.59,16,11.96,16,10c0-2.21-1.79-4-4-4c-2.21,0-4,1.79-4,4 c0,1.96,1.42,3.59,3.28,3.93c-4.42,0.25-6.84,2.8-7.28,6V4h16v15.93C19.56,16.73,17.14,14.18,12.72,13.93z"
       class="style-scope yt-icon"
       id="path1" fill="#aaa"/>
  </g>
</svg>
