<svg id="edXBPtD4wev1" xmlns="http://www.w3.org/2000/svg" xmlns:xlink="http://www.w3.org/1999/xlink" viewBox="0 0 48.276 48.276" shape-rendering="geometricPrecision" text-rendering="geometricPrecision"><g transform="matrix(.81222 0 0 0.818582 4.532633 4.379068)"><g><path d="M43.963,4.553h-39.652C1.934,4.553,0,6.486,0,8.865v24.874c0,2.378,1.934,4.311,4.311,4.311h7.273c-.488,1.097-.492,2.366.064,3.463.689,1.354,2.08,2.21,3.6,2.21h17.776c1.52,0,2.91-.855,3.6-2.21.294-.579.438-1.203.438-1.829c0-.56-.125-1.115-.355-1.634h7.257c2.378,0,4.312-1.933,4.312-4.311v-24.874c-.002-2.379-1.935-4.312-4.313-4.312Zm-.121,29.064h-10.238L27.401,25.1c-.759-1.04-1.974-1.657-3.266-1.657-1.291,0-2.505.617-3.266,1.657l-6.201,8.517h-10.235v-24.631h39.408l.001,24.631v0Z" fill="#d8d9dc"/></g></g></svg>
