<?xml version="1.0" encoding="UTF-8" standalone="no"?>
<svg
   viewBox="0 0 24 24"
   preserveAspectRatio="xMidYMid meet"
   focusable="false"
   class="style-scope tp-yt-iron-icon"
   style="pointer-events: none; display: block; width: 100%; height: 100%;"
   version="1.1"
   id="svg1"
   sodipodi:docname="earn.svg"
   inkscape:version="1.3.2 (091e20e, 2023-11-25, custom)"
   xmlns:inkscape="http://www.inkscape.org/namespaces/inkscape"
   xmlns:sodipodi="http://sodipodi.sourceforge.net/DTD/sodipodi-0.dtd"
   xmlns="http://www.w3.org/2000/svg"
   xmlns:svg="http://www.w3.org/2000/svg">
  <defs
     id="defs1" />
  <sodipodi:namedview
     id="namedview1"
     pagecolor="#505050"
     bordercolor="#eeeeee"
     borderopacity="1"
     inkscape:showpageshadow="0"
     inkscape:pageopacity="0"
     inkscape:pagecheckerboard="0"
     inkscape:deskcolor="#505050"
     showgrid="false"
     inkscape:zoom="32.375"
     inkscape:cx="11.984556"
     inkscape:cy="12"
     inkscape:window-width="1920"
     inkscape:window-height="991"
     inkscape:window-x="-9"
     inkscape:window-y="-9"
     inkscape:window-maximized="1"
     inkscape:current-layer="svg1" />
  <g
     width="24"
     height="24"
     viewBox="0 0 24 24"
     class="style-scope tp-yt-iron-icon"
     id="g1">
    <path
       d="M8 7V10C8 10.55 8.45 11 9 11H15C16.1 11 17 11.9 17 13V17C17 18.1 16.1 19 15 19H13V21H11V19H7V18H15C15.55 18 16 17.55 16 17V13C16 12.45 15.55 12 15 12H9C7.9 12 7 11.1 7 10V7C7 5.9 7.9 5 9 5H11V3H13V5H17V6H9C8.45 6 8 6.45 8 7Z"
       class="style-scope tp-yt-iron-icon"
       id="path1" fill="#aaa"/>
  </g>
</svg>
