<svg id="eqNkD9WK01R1" xmlns="http://www.w3.org/2000/svg" xmlns:xlink="http://www.w3.org/1999/xlink" viewBox="0 0 24 24" shape-rendering="geometricPrecision" text-rendering="geometricPrecision"><path d="M12.5535,2.49392C12.4114,2.33852,12.2106,2.25,12,2.25s-.4114.08852-.5535.24392l-4.00002,4.375c-.2795.3057-.25826.7801.04744,1.0596s.7801.25826,1.0596-.04744L11.25,4.9318v11.0682c0,.4142.3358.75.75.75s.75-.3358.75-.75v-11.0682l2.6965,2.94928c.2795.3057.7539.32694,1.0596.04744s.3269-.7539.0474-1.0596l-4-4.375Z" transform="matrix(1.625124 0 0 1.30087-7.501486-2.301662)" fill="#c0c1c4"/><path d="M23,22c0,.5523-.4477,1-1,1h-20c-.55228,0-1-.4477-1-1s.44772-1,1-1h20c.5523,0,1,.4477,1,1Z" transform="matrix(.741405 0 0 0.971659 3.10314 0.912853)" clip-rule="evenodd" fill="#c0c1c4" fill-rule="evenodd"/></svg>
