<?xml version="1.0" encoding="UTF-8" standalone="no"?>
<svg
   viewBox="0 0 24 24"
   preserveAspectRatio="xMidYMid meet"
   focusable="false"
   class="style-scope tp-yt-iron-icon"
   style="pointer-events: none; display: block; width: 100%; height: 100%;"
   version="1.1"
   id="svg1"
   sodipodi:docname="sd.svg"
   inkscape:version="1.3.2 (091e20e, 2023-11-25, custom)"
   xmlns:inkscape="http://www.inkscape.org/namespaces/inkscape"
   xmlns:sodipodi="http://sodipodi.sourceforge.net/DTD/sodipodi-0.dtd"
   xmlns="http://www.w3.org/2000/svg"
   xmlns:svg="http://www.w3.org/2000/svg">
  <defs
     id="defs1" />
  <sodipodi:namedview
     id="namedview1"
     pagecolor="#505050"
     bordercolor="#eeeeee"
     borderopacity="1"
     inkscape:showpageshadow="0"
     inkscape:pageopacity="0"
     inkscape:pagecheckerboard="0"
     inkscape:deskcolor="#505050"
     inkscape:zoom="32.375"
     inkscape:cx="11.984556"
     inkscape:cy="12"
     inkscape:window-width="1920"
     inkscape:window-height="991"
     inkscape:window-x="-9"
     inkscape:window-y="-9"
     inkscape:window-maximized="1"
     inkscape:current-layer="svg1" />
  <g
     width="24"
     height="24"
     viewBox="0 0 24 24"
     class="style-scope tp-yt-iron-icon"
     id="g1">
    <path
       d="M5 17V15H9V13H7C5.89 13 5 12.11 5 11V9C5 7.89 5.89 7 7 7H11V9H7V11H9C10.11 11 11 11.89 11 13V15C11 16.11 10.11 17 9 17H5ZM19 10V14C19 15.66 17.66 17 16 17H13V7H16C17.66 7 19 8.34 19 10ZM17 10C17 9.45 16.55 9 16 9H15V15H16C16.55 15 17 14.55 17 14V10ZM21 3V21H3V3H21ZM20 4H4V20H20V4Z"
       class="style-scope tp-yt-iron-icon"
       id="path1" fill="rgb(62, 166, 255)"/>
  </g>
</svg>
