<?xml version="1.0" encoding="UTF-8" standalone="no"?>
<svg
   viewBox="0 0 24 24"
   preserveAspectRatio="xMidYMid meet"
   focusable="false"
   class="style-scope yt-icon"
   style="pointer-events: none; display: block; width: 100%; height: 100%;"
   version="1.1"
   id="svg1"
   sodipodi:docname="youtube.svg"
   inkscape:version="1.3.2 (091e20e, 2023-11-25, custom)"
   xmlns:inkscape="http://www.inkscape.org/namespaces/inkscape"
   xmlns:sodipodi="http://sodipodi.sourceforge.net/DTD/sodipodi-0.dtd"
   xmlns="http://www.w3.org/2000/svg"
   xmlns:svg="http://www.w3.org/2000/svg">
  <defs
     id="defs1" />
  <sodipodi:namedview
     id="namedview1"
     pagecolor="#505050"
     bordercolor="#eeeeee"
     borderopacity="1"
     inkscape:showpageshadow="0"
     inkscape:pageopacity="0"
     inkscape:pagecheckerboard="0"
     inkscape:deskcolor="#505050"
     inkscape:zoom="32.375"
     inkscape:cx="11.984556"
     inkscape:cy="12"
     inkscape:window-width="1920"
     inkscape:window-height="991"
     inkscape:window-x="-9"
     inkscape:window-y="-9"
     inkscape:window-maximized="1"
     inkscape:current-layer="svg1" />
  <g
     class="style-scope yt-icon"
     id="g1">
    <path
       d="M10,9.35,15,12l-5,2.65ZM12,6a54.36,54.36,0,0,0-7.56.38A1.53,1.53,0,0,0,3.38,7.44,24.63,24.63,0,0,0,3,12a24.63,24.63,0,0,0,.38,4.56,1.53,1.53,0,0,0,1.06,1.06A54.36,54.36,0,0,0,12,18a54.36,54.36,0,0,0,7.56-.38,1.53,1.53,0,0,0,1.06-1.06A24.63,24.63,0,0,0,21,12a24.63,24.63,0,0,0-.38-4.56,1.53,1.53,0,0,0-1.06-1.06A54.36,54.36,0,0,0,12,6h0m0-1s6.25,0,7.81.42a2.51,2.51,0,0,1,1.77,1.77A25.87,25.87,0,0,1,22,12a25.87,25.87,0,0,1-.42,4.81,2.51,2.51,0,0,1-1.77,1.77C18.25,19,12,19,12,19s-6.25,0-7.81-.42a2.51,2.51,0,0,1-1.77-1.77A25.87,25.87,0,0,1,2,12a25.87,25.87,0,0,1,.42-4.81A2.51,2.51,0,0,1,4.19,5.42C5.75,5,12,5,12,5Z"
       class="style-scope yt-icon"
       id="path1" fill="#aaa"/>
  </g>
</svg>
